[codex-safe-run] start 2026-06-19 00:15:23 timeout=240.0s cmd=node /Users/junjie/info/artifacts/info-intro-part1/render.mjs
rendered 0s / 96s
Trying to load the allocator multiple times. This is *not* supported.
[62873:166239496:0619/001535.457745:ERROR:google_apis/gcm/engine/registration_request.cc:291] Registration response error message: PHONE_REGISTRATION_ERROR
[62873:166239496:0619/001535.457959:ERROR:google_apis/gcm/engine/registration_request.cc:291] Registration response error message: PHONE_REGISTRATION_ERROR
[62873:166239496:0619/001535.457979:ERROR:google_apis/gcm/engine/registration_request.cc:291] Registration response error message: PHONE_REGISTRATION_ERROR
rendered 1s / 96s
Created TensorFlow Lite XNNPACK delegate for CPU.
[64023:166242530:0619/001545.519264:VERBOSE1:chrome/updater/updater.cc:374] Version: 150.0.7863.0, opt, ARM_64, command line: /Users/junjie/Library/Application Support/Google/GoogleUpdater/150.0.7863.0/GoogleUpdater.app/Contents/MacOS/GoogleUpdater --wake-all --enable-logging --vmodule=*/components/update_client/*=2,*/chrome/enterprise_companion/*=2,*/chrome/updater/*=2
[64023:166242530:0619/001545.519416:VERBOSE1:chrome/updater/updater.cc:377] OS version: 26.5.0, arch: arm64, System uptime (seconds): 567717, parent pid: 62873
[64023:166242530:0619/001545.544141:VERBOSE1:chrome/updater/updater.cc:382] Available disk space in install directory (/Users/junjie/Library/Application Support/Google/GoogleUpdater): 28773736448B (26.798GiB) / 494353338368B (460.402GiB)
[64023:166242530:0619/001545.545253:VERBOSE1:chrome/updater/updater.cc:386] Available disk space in temporary directory (/var/folders/nf/p_gz13xx08n82_nn23sptk9r0000gn/T/): 28773736448B (26.798GiB) / 494353338368B (460.402GiB)
[64023:166242530:0619/001545.545543:VERBOSE2:chrome/updater/event_history.cc:265] Emitted a UPDATER_PROCESS START event to the history log
[64027:166242541:0619/001545.620431:VERBOSE1:chrome/updater/updater.cc:374] Version: 150.0.7863.0, opt, ARM_64, command line: /Users/junjie/Library/Application Support/Google/GoogleUpdater/150.0.7863.0/GoogleUpdater.app/Contents/MacOS/GoogleUpdater --crash-handler --database=/Users/junjie/Library/Application Support/Google/GoogleUpdater/150.0.7863.0/Crashpad --url=https://clients2.google.com/cr/report --annotation=prod=Update4 --annotation=ver=150.0.7863.0 --handshake-fd=6 --enable-logging --vmodule=*/components/update_client/*=2,*/chrome/enterprise_companion/*=2,*/chrome/updater/*=2
[64027:166242541:0619/001545.620491:VERBOSE1:chrome/updater/updater.cc:377] OS version: 26.5.0, arch: arm64, System uptime (seconds): 567717, parent pid: 1
[64027:166242541:0619/001545.672235:VERBOSE1:chrome/updater/updater.cc:382] Available disk space in install directory (/Users/junjie/Library/Application Support/Google/GoogleUpdater): 28773662720B (26.798GiB) / 494353338368B (460.402GiB)
[64027:166242541:0619/001545.672284:VERBOSE1:chrome/updater/updater.cc:386] Available disk space in temporary directory (/var/folders/nf/p_gz13xx08n82_nn23sptk9r0000gn/T/): 28773662720B (26.798GiB) / 494353338368B (460.402GiB)
[64027:166242541:0619/001545.672403:VERBOSE2:chrome/updater/event_history.cc:265] Emitted a UPDATER_PROCESS START event to the history log
[64023:166242530:0619/001545.680077:VERBOSE1:chrome/updater/crash_reporter.cc:124] Crash handler launched and ready.
[64023:166242530:0619/001545.690067:VERBOSE1:chrome/updater/crash_client.cc:108] Found 0 completed crash reports
[64023:166242530:0619/001545.690411:VERBOSE1:chrome/updater/crash_client.cc:132] Found 0 pending crash reports
[64023:166242530:0619/001545.693624:ERROR:third_party/crashpad/crashpad/util/file/file_io_posix.cc:145] open /Users/junjie/Library/Application Support/Google/Chrome Dev/Crashpad/settings.dat: No such file or directory (2)
[64023:166242530:0619/001545.693821:ERROR:third_party/crashpad/crashpad/util/file/file_io_posix.cc:145] open /Users/junjie/Library/Application Support/Google/RLZ/Crashpad/settings.dat: No such file or directory (2)
[64023:166242530:0619/001545.697467:VERBOSE1:chrome/updater/updater.cc:105] Crash reporting initialized.
[64023:166242563:0619/001545.700347:VERBOSE1:chrome/updater/app/app_wakeall.cc:58] Launching `/Users/junjie/Library/Application Support/Google/GoogleUpdater/150.0.7863.0/GoogleUpdater.app/Contents/MacOS/GoogleUpdater --wake`
[64029:166242567:0619/001545.770636:VERBOSE1:chrome/updater/updater.cc:374] Version: 150.0.7863.0, opt, ARM_64, command line: /Users/junjie/Library/Application Support/Google/GoogleUpdater/150.0.7863.0/GoogleUpdater.app/Contents/MacOS/GoogleUpdater --wake --enable-logging --vmodule=*/components/update_client/*=2,*/chrome/enterprise_companion/*=2,*/chrome/updater/*=2
[64029:166242567:0619/001545.771633:VERBOSE1:chrome/updater/updater.cc:377] OS version: 26.5.0, arch: arm64, System uptime (seconds): 567717, parent pid: 64023
[64029:166242567:0619/001545.787109:VERBOSE1:chrome/updater/updater.cc:382] Available disk space in install directory (/Users/junjie/Library/Application Support/Google/GoogleUpdater): 28771549184B (26.796GiB) / 494353338368B (460.402GiB)
[64029:166242567:0619/001545.787126:VERBOSE1:chrome/updater/updater.cc:386] Available disk space in temporary directory (/var/folders/nf/p_gz13xx08n82_nn23sptk9r0000gn/T/): 28771549184B (26.796GiB) / 494353338368B (460.402GiB)
[64029:166242567:0619/001545.787189:VERBOSE2:chrome/updater/event_history.cc:265] Emitted a UPDATER_PROCESS START event to the history log
[64032:166242575:0619/001545.817027:VERBOSE1:chrome/updater/updater.cc:374] Version: 150.0.7863.0, opt, ARM_64, command line: /Users/junjie/Library/Application Support/Google/GoogleUpdater/150.0.7863.0/GoogleUpdater.app/Contents/MacOS/GoogleUpdater --crash-handler --database=/Users/junjie/Library/Application Support/Google/GoogleUpdater/150.0.7863.0/Crashpad --url=https://clients2.google.com/cr/report --annotation=prod=Update4 --annotation=ver=150.0.7863.0 --handshake-fd=6 --enable-logging --vmodule=*/components/update_client/*=2,*/chrome/enterprise_companion/*=2,*/chrome/updater/*=2
[64032:166242575:0619/001545.817149:VERBOSE1:chrome/updater/updater.cc:377] OS version: 26.5.0, arch: arm64, System uptime (seconds): 567717, parent pid: 1
[64032:166242575:0619/001545.822948:VERBOSE1:chrome/updater/updater.cc:382] Available disk space in install directory (/Users/junjie/Library/Application Support/Google/GoogleUpdater): 28771549184B (26.796GiB) / 494353338368B (460.402GiB)
[64032:166242575:0619/001545.822978:VERBOSE1:chrome/updater/updater.cc:386] Available disk space in temporary directory (/var/folders/nf/p_gz13xx08n82_nn23sptk9r0000gn/T/): 28771549184B (26.796GiB) / 494353338368B (460.402GiB)
[64032:166242575:0619/001545.823078:VERBOSE2:chrome/updater/event_history.cc:265] Emitted a UPDATER_PROCESS START event to the history log
[64029:166242567:0619/001545.824710:VERBOSE1:chrome/updater/crash_reporter.cc:124] Crash handler launched and ready.
[64029:166242567:0619/001545.831550:VERBOSE1:chrome/updater/crash_client.cc:108] Found 0 completed crash reports
[64029:166242567:0619/001545.832650:VERBOSE1:chrome/updater/crash_client.cc:132] Found 0 pending crash reports
[64029:166242567:0619/001545.832993:ERROR:third_party/crashpad/crashpad/util/file/file_io_posix.cc:145] open /Users/junjie/Library/Application Support/Google/Chrome Dev/Crashpad/settings.dat: No such file or directory (2)
[64029:166242567:0619/001545.833042:ERROR:third_party/crashpad/crashpad/util/file/file_io_posix.cc:145] open /Users/junjie/Library/Application Support/Google/RLZ/Crashpad/settings.dat: No such file or directory (2)
[64029:166242567:0619/001545.833368:VERBOSE1:chrome/updater/updater.cc:105] Crash reporting initialized.
[64029:166242567:0619/001545.833555:VERBOSE1:chrome/updater/ipc/update_service_internal_proxy_mojo.cc:61] Run
rendered 2s / 96s
rendered 3s / 96s
[62873:166239496:0619/001603.327138:ERROR:google_apis/gcm/engine/registration_request.cc:291] Registration response error message: DEPRECATED_ENDPOINT
[64029:166242567:0619/001603.555620:VERBOSE1:chrome/updater/app/app.cc:52] Shutdown: 0
[64029:166242567:0619/001603.556683:VERBOSE2:chrome/updater/event_history.cc:265] Emitted a UPDATER_PROCESS END event to the history log
[64029:166242567:0619/001603.556798:VERBOSE1:chrome/updater/updater.cc:419] UpdaterMain (--wake) returned 0.
[64023:166242563:0619/001603.817970:VERBOSE1:chrome/updater/app/app_wakeall.cc:68] `/Users/junjie/Library/Application Support/Google/GoogleUpdater/150.0.7863.0/GoogleUpdater.app/Contents/MacOS/GoogleUpdater --wake` exited 0
[64023:166242530:0619/001603.818189:VERBOSE1:chrome/updater/app/app.cc:52] Shutdown: 0
[64023:166242530:0619/001603.818862:VERBOSE2:chrome/updater/event_history.cc:265] Emitted a UPDATER_PROCESS END event to the history log
[64023:166242530:0619/001603.818877:VERBOSE1:chrome/updater/updater.cc:419] UpdaterMain (--wake-all) returned 0.
rendered 4s / 96s
[64032:166242575:0619/001613.580143:VERBOSE2:chrome/updater/event_history.cc:265] Emitted a UPDATER_PROCESS END event to the history log
[64032:166242575:0619/001613.580229:VERBOSE1:chrome/updater/updater.cc:419] UpdaterMain (--crash-handler) returned 0.
[64027:166242541:0619/001613.588633:VERBOSE2:chrome/updater/event_history.cc:265] Emitted a UPDATER_PROCESS END event to the history log
[64027:166242541:0619/001613.588993:VERBOSE1:chrome/updater/updater.cc:419] UpdaterMain (--crash-handler) returned 0.
rendered 5s / 96s
rendered 6s / 96s
rendered 7s / 96s
[62873:166239496:0619/001635.702527:ERROR:google_apis/gcm/engine/connection_factory_impl.cc:484] ConnectionHandler failed with net error: -2
rendered 8s / 96s
[codex-safe-run] still running after 88s; pid=62872
rendered 9s / 96s
[62873:166239496:0619/001659.767491:ERROR:google_apis/gcm/engine/registration_request.cc:291] Registration response error message: DEPRECATED_ENDPOINT
rendered 10s / 96s
rendered 11s / 96s
rendered 12s / 96s
rendered 13s / 96s
[62873:166239496:0619/001736.695622:ERROR:google_apis/gcm/engine/connection_factory_impl.cc:484] ConnectionHandler failed with net error: -2
rendered 14s / 96s
rendered 15s / 96s
rendered 16s / 96s
rendered 17s / 96s
rendered 18s / 96s
rendered 19s / 96s
Trying to load the allocator multiple times. This is *not* supported.
WARNING: All log messages before absl::InitializeLog() is called are written to STDERR
I0000 00:00:1781799507.184377 166270506 environment.cc:556] Selected adapter: Apple M4, arch=metal-3, vendor=apple, backend=Metal, adapterType=Integrated GPU
I0000 00:00:1781799507.309585 166270551 environment.cc:556] Selected adapter: Apple M4, arch=metal-3, vendor=apple, backend=Metal, adapterType=Integrated GPU
[62873:166239496:0619/001829.866289:ERROR:google_apis/gcm/engine/registration_request.cc:291] Registration response error message: DEPRECATED_ENDPOINT
rendered 20s / 96s
[62873:166239496:0619/001837.729359:ERROR:google_apis/gcm/engine/connection_factory_impl.cc:484] ConnectionHandler failed with net error: -2
rendered 21s / 96s
rendered 22s / 96s
[codex-safe-run] start 2026-06-19 00:29:57 timeout=180.0s cmd=env INFO_INTRO_SOURCE_FPS=4 INFO_INTRO_OUTPUT_FPS=30 node /Users/junjie/info/artifacts/info-intro-part1/render.mjs
[codex-safe-run] still running after 10s; pid=50893
rendered 0s / 96s
rendered 1s / 96s
Trying to load the allocator multiple times. This is *not* supported.
rendered 2s / 96s
rendered 3s / 96s
rendered 4s / 96s
rendered 5s / 96s
[50899:145242:0619/003012.020493:ERROR:google_apis/gcm/engine/registration_request.cc:291] Registration response error message: DEPRECATED_ENDPOINT
rendered 6s / 96s
rendered 7s / 96s
rendered 8s / 96s
rendered 9s / 96s
rendered 10s / 96s
rendered 11s / 96s
rendered 12s / 96s
rendered 13s / 96s
rendered 14s / 96s
rendered 15s / 96s
rendered 16s / 96s
rendered 17s / 96s
rendered 18s / 96s
rendered 19s / 96s
rendered 20s / 96s
rendered 21s / 96s
rendered 22s / 96s
rendered 23s / 96s
rendered 24s / 96s
rendered 25s / 96s
Created TensorFlow Lite XNNPACK delegate for CPU.
rendered 26s / 96s
rendered 27s / 96s
[54636:151277:0619/003025.842504:VERBOSE1:chrome/updater/updater.cc:374] Version: 150.0.7863.0, opt, ARM_64, command line: /Users/junjie/Library/Application Support/Google/GoogleUpdater/150.0.7863.0/GoogleUpdater.app/Contents/MacOS/GoogleUpdater --wake-all --enable-logging --vmodule=*/components/update_client/*=2,*/chrome/enterprise_companion/*=2,*/chrome/updater/*=2
[54636:151277:0619/003025.842531:VERBOSE1:chrome/updater/updater.cc:377] OS version: 26.5.0, arch: arm64, System uptime (seconds): 653, parent pid: 50899
[54636:151277:0619/003025.844471:VERBOSE1:chrome/updater/updater.cc:382] Available disk space in install directory (/Users/junjie/Library/Application Support/Google/GoogleUpdater): 64883765248B (60.428GiB) / 494353338368B (460.402GiB)
[54636:151277:0619/003025.844484:VERBOSE1:chrome/updater/updater.cc:386] Available disk space in temporary directory (/var/folders/nf/p_gz13xx08n82_nn23sptk9r0000gn/T/): 64883765248B (60.428GiB) / 494353338368B (460.402GiB)
[54636:151277:0619/003025.844539:VERBOSE2:chrome/updater/event_history.cc:265] Emitted a UPDATER_PROCESS START event to the history log
rendered 28s / 96s
[54638:151286:0619/003025.853667:VERBOSE1:chrome/updater/updater.cc:374] Version: 150.0.7863.0, opt, ARM_64, command line: /Users/junjie/Library/Application Support/Google/GoogleUpdater/150.0.7863.0/GoogleUpdater.app/Contents/MacOS/GoogleUpdater --crash-handler --database=/Users/junjie/Library/Application Support/Google/GoogleUpdater/150.0.7863.0/Crashpad --url=https://clients2.google.com/cr/report --annotation=prod=Update4 --annotation=ver=150.0.7863.0 --handshake-fd=6 --enable-logging --vmodule=*/components/update_client/*=2,*/chrome/enterprise_companion/*=2,*/chrome/updater/*=2
[54638:151286:0619/003025.853728:VERBOSE1:chrome/updater/updater.cc:377] OS version: 26.5.0, arch: arm64, System uptime (seconds): 653, parent pid: 1
[54638:151286:0619/003025.856140:VERBOSE1:chrome/updater/updater.cc:382] Available disk space in install directory (/Users/junjie/Library/Application Support/Google/GoogleUpdater): 64882937856B (60.427GiB) / 494353338368B (460.402GiB)
[54638:151286:0619/003025.856152:VERBOSE1:chrome/updater/updater.cc:386] Available disk space in temporary directory (/var/folders/nf/p_gz13xx08n82_nn23sptk9r0000gn/T/): 64882937856B (60.427GiB) / 494353338368B (460.402GiB)
[54638:151286:0619/003025.856216:VERBOSE2:chrome/updater/event_history.cc:265] Emitted a UPDATER_PROCESS START event to the history log
[54636:151277:0619/003025.856657:VERBOSE1:chrome/updater/crash_reporter.cc:124] Crash handler launched and ready.
[54636:151277:0619/003025.857221:VERBOSE1:chrome/updater/crash_client.cc:108] Found 0 completed crash reports
[54636:151277:0619/003025.857280:VERBOSE1:chrome/updater/crash_client.cc:132] Found 0 pending crash reports
[54636:151277:0619/003025.857345:ERROR:third_party/crashpad/crashpad/util/file/file_io_posix.cc:145] open /Users/junjie/Library/Application Support/Google/Chrome Dev/Crashpad/settings.dat: No such file or directory (2)
[54636:151277:0619/003025.857375:ERROR:third_party/crashpad/crashpad/util/file/file_io_posix.cc:145] open /Users/junjie/Library/Application Support/Google/RLZ/Crashpad/settings.dat: No such file or directory (2)
[54636:151277:0619/003025.857642:VERBOSE1:chrome/updater/updater.cc:105] Crash reporting initialized.
[54636:151295:0619/003025.857884:VERBOSE1:chrome/updater/app/app_wakeall.cc:58] Launching `/Users/junjie/Library/Application Support/Google/GoogleUpdater/150.0.7863.0/GoogleUpdater.app/Contents/MacOS/GoogleUpdater --wake`
[54639:151299:0619/003025.864503:VERBOSE1:chrome/updater/updater.cc:374] Version: 150.0.7863.0, opt, ARM_64, command line: /Users/junjie/Library/Application Support/Google/GoogleUpdater/150.0.7863.0/GoogleUpdater.app/Contents/MacOS/GoogleUpdater --wake --enable-logging --vmodule=*/components/update_client/*=2,*/chrome/enterprise_companion/*=2,*/chrome/updater/*=2
[54639:151299:0619/003025.864541:VERBOSE1:chrome/updater/updater.cc:377] OS version: 26.5.0, arch: arm64, System uptime (seconds): 653, parent pid: 54636
[54639:151299:0619/003025.866423:VERBOSE1:chrome/updater/updater.cc:382] Available disk space in install directory (/Users/junjie/Library/Application Support/Google/GoogleUpdater): 64882937856B (60.427GiB) / 494353338368B (460.402GiB)
[54639:151299:0619/003025.866434:VERBOSE1:chrome/updater/updater.cc:386] Available disk space in temporary directory (/var/folders/nf/p_gz13xx08n82_nn23sptk9r0000gn/T/): 64882937856B (60.427GiB) / 494353338368B (460.402GiB)
[54639:151299:0619/003025.866490:VERBOSE2:chrome/updater/event_history.cc:265] Emitted a UPDATER_PROCESS START event to the history log
[54641:151304:0619/003025.874915:VERBOSE1:chrome/updater/updater.cc:374] Version: 150.0.7863.0, opt, ARM_64, command line: /Users/junjie/Library/Application Support/Google/GoogleUpdater/150.0.7863.0/GoogleUpdater.app/Contents/MacOS/GoogleUpdater --crash-handler --database=/Users/junjie/Library/Application Support/Google/GoogleUpdater/150.0.7863.0/Crashpad --url=https://clients2.google.com/cr/report --annotation=prod=Update4 --annotation=ver=150.0.7863.0 --handshake-fd=6 --enable-logging --vmodule=*/components/update_client/*=2,*/chrome/enterprise_companion/*=2,*/chrome/updater/*=2
[54641:151304:0619/003025.874947:VERBOSE1:chrome/updater/updater.cc:377] OS version: 26.5.0, arch: arm64, System uptime (seconds): 653, parent pid: 1
[54641:151304:0619/003025.876690:VERBOSE1:chrome/updater/updater.cc:382] Available disk space in install directory (/Users/junjie/Library/Application Support/Google/GoogleUpdater): 64882925568B (60.427GiB) / 494353338368B (460.402GiB)
[54641:151304:0619/003025.876700:VERBOSE1:chrome/updater/updater.cc:386] Available disk space in temporary directory (/var/folders/nf/p_gz13xx08n82_nn23sptk9r0000gn/T/): 64882925568B (60.427GiB) / 494353338368B (460.402GiB)
[54641:151304:0619/003025.876751:VERBOSE2:chrome/updater/event_history.cc:265] Emitted a UPDATER_PROCESS START event to the history log
[54639:151299:0619/003025.877140:VERBOSE1:chrome/updater/crash_reporter.cc:124] Crash handler launched and ready.
[54639:151299:0619/003025.877662:VERBOSE1:chrome/updater/crash_client.cc:108] Found 0 completed crash reports
[54639:151299:0619/003025.877724:VERBOSE1:chrome/updater/crash_client.cc:132] Found 0 pending crash reports
[54639:151299:0619/003025.877788:ERROR:third_party/crashpad/crashpad/util/file/file_io_posix.cc:145] open /Users/junjie/Library/Application Support/Google/Chrome Dev/Crashpad/settings.dat: No such file or directory (2)
[54639:151299:0619/003025.877798:ERROR:third_party/crashpad/crashpad/util/file/file_io_posix.cc:145] open /Users/junjie/Library/Application Support/Google/RLZ/Crashpad/settings.dat: No such file or directory (2)
[54639:151299:0619/003025.878047:VERBOSE1:chrome/updater/updater.cc:105] Crash reporting initialized.
[54639:151299:0619/003025.878201:VERBOSE1:chrome/updater/ipc/update_service_internal_proxy_mojo.cc:61] Run
rendered 29s / 96s
rendered 30s / 96s
rendered 31s / 96s
rendered 32s / 96s
rendered 33s / 96s
rendered 34s / 96s
rendered 35s / 96s
rendered 36s / 96s
rendered 37s / 96s
rendered 38s / 96s
rendered 39s / 96s
rendered 40s / 96s
rendered 41s / 96s
rendered 42s / 96s
rendered 43s / 96s
[50899:145242:0619/003035.285503:ERROR:google_apis/gcm/engine/registration_request.cc:291] Registration response error message: DEPRECATED_ENDPOINT
rendered 44s / 96s
rendered 45s / 96s
rendered 46s / 96s
rendered 47s / 96s
rendered 48s / 96s
rendered 49s / 96s
rendered 50s / 96s
rendered 51s / 96s
rendered 52s / 96s
rendered 53s / 96s
rendered 54s / 96s
rendered 55s / 96s
[54639:151299:0619/003042.179049:VERBOSE1:chrome/updater/app/app.cc:52] Shutdown: 0
[54639:151299:0619/003042.179380:VERBOSE2:chrome/updater/event_history.cc:265] Emitted a UPDATER_PROCESS END event to the history log
[54639:151299:0619/003042.179391:VERBOSE1:chrome/updater/updater.cc:419] UpdaterMain (--wake) returned 0.
[54636:151295:0619/003042.384879:VERBOSE1:chrome/updater/app/app_wakeall.cc:68] `/Users/junjie/Library/Application Support/Google/GoogleUpdater/150.0.7863.0/GoogleUpdater.app/Contents/MacOS/GoogleUpdater --wake` exited 0
[54636:151277:0619/003042.384999:VERBOSE1:chrome/updater/app/app.cc:52] Shutdown: 0
[54636:151277:0619/003042.385421:VERBOSE2:chrome/updater/event_history.cc:265] Emitted a UPDATER_PROCESS END event to the history log
[54636:151277:0619/003042.385440:VERBOSE1:chrome/updater/updater.cc:419] UpdaterMain (--wake-all) returned 0.
rendered 56s / 96s
rendered 57s / 96s
rendered 58s / 96s
rendered 59s / 96s
rendered 60s / 96s
rendered 61s / 96s
rendered 62s / 96s
rendered 63s / 96s
rendered 64s / 96s
rendered 65s / 96s
rendered 66s / 96s
rendered 67s / 96s
rendered 68s / 96s
rendered 69s / 96s
rendered 70s / 96s
rendered 71s / 96s
[54641:151304:0619/003052.187986:VERBOSE2:chrome/updater/event_history.cc:265] Emitted a UPDATER_PROCESS END event to the history log
[54641:151304:0619/003052.188004:VERBOSE1:chrome/updater/updater.cc:419] UpdaterMain (--crash-handler) returned 0.
[54638:151286:0619/003052.188909:VERBOSE2:chrome/updater/event_history.cc:265] Emitted a UPDATER_PROCESS END event to the history log
[54638:151286:0619/003052.188920:VERBOSE1:chrome/updater/updater.cc:419] UpdaterMain (--crash-handler) returned 0.
rendered 72s / 96s
rendered 73s / 96s
rendered 74s / 96s
rendered 75s / 96s
rendered 76s / 96s
rendered 77s / 96s
rendered 78s / 96s
rendered 79s / 96s
rendered 80s / 96s
rendered 81s / 96s
rendered 82s / 96s
rendered 83s / 96s
rendered 84s / 96s
rendered 85s / 96s
rendered 86s / 96s
rendered 87s / 96s
rendered 88s / 96s
rendered 89s / 96s
rendered 90s / 96s
rendered 91s / 96s
rendered 92s / 96s
rendered 93s / 96s
rendered 94s / 96s
rendered 95s / 96s
ffmpeg version 8.0.1 Copyright (c) 2000-2025 the FFmpeg developers
  built with Apple clang version 17.0.0 (clang-1700.6.3.2)
  configuration: --prefix=/opt/homebrew/Cellar/ffmpeg/8.0.1_4 --enable-shared --enable-pthreads --enable-version3 --cc=clang --host-cflags= --host-ldflags= --enable-ffplay --enable-gpl --enable-libsvtav1 --enable-libopus --enable-libx264 --enable-libmp3lame --enable-libdav1d --enable-libvpx --enable-libx265 --enable-openssl --enable-videotoolbox --enable-audiotoolbox --enable-neon
  libavutil      60.  8.100 / 60.  8.100
  libavcodec     62. 11.100 / 62. 11.100
  libavformat    62.  3.100 / 62.  3.100
  libavdevice    62.  1.100 / 62.  1.100
  libavfilter    11.  4.100 / 11.  4.100
  libswscale      9.  1.100 /  9.  1.100
  libswresample   6.  1.100 /  6.  1.100
Input #0, image2, from '/Users/junjie/info/artifacts/info-intro-part1/frames/frame-%05d.png':
  Duration: 00:01:36.00, start: 0.000000, bitrate: N/A
  Stream #0:0: Video: png, rgb24(pc, gbr/unknown/unknown), 1280x720, 4 fps, 4 tbr, 4 tbn
Stream mapping:
  Stream #0:0 -> #0:0 (png (native) -> h264 (libx264))
Press [q] to stop, [?] for help
[libx264 @ 0xb79018a80] using cpu capabilities: ARMv8 NEON DotProd I8MM
[libx264 @ 0xb79018a80] profile High, level 3.1, 4:2:0, 8-bit
[libx264 @ 0xb79018a80] 264 - core 165 r3222 b35605a - H.264/MPEG-4 AVC codec - Copyleft 2003-2025 - http://www.videolan.org/x264.html - options: cabac=1 ref=3 deblock=1:0:0 analyse=0x3:0x113 me=hex subme=7 psy=1 psy_rd=1.00:0.00 mixed_ref=1 me_range=16 chroma_me=1 trellis=1 8x8dct=1 cqm=0 deadzone=21,11 fast_pskip=1 chroma_qp_offset=-2 threads=15 lookahead_threads=2 sliced_threads=0 nr=0 decimate=1 interlaced=0 bluray_compat=0 constrained_intra=0 bframes=3 b_pyramid=2 b_adapt=1 b_bias=0 direct=1 weightb=1 open_gop=0 weightp=2 keyint=250 keyint_min=25 scenecut=40 intra_refresh=0 rc_lookahead=40 rc=crf mbtree=1 crf=23.0 qcomp=0.60 qpmin=0 qpmax=69 qpstep=4 ip_ratio=1.40 aq=1:1.00
Output #0, mp4, to '/Users/junjie/info/artifacts/info-intro-part1/info-intro-part1.mp4':
  Metadata:
    encoder         : Lavf62.3.100
  Stream #0:0: Video: h264 (avc1 / 0x31637661), yuv420p(tv, progressive), 1280x720, q=2-31, 30 fps, 15360 tbn
    Metadata:
      encoder         : Lavc62.11.100 libx264
    Side data:
      cpb: bitrate max/min/avg: 0/0/0 buffer size: 0 vbv_delay: N/A
frame=  235 fps=0.0 q=29.0 size=       0KiB time=00:00:07.76 bitrate=   0.0kbits/s dup=267 drop=0 speed=15.4x elapsed=0:00:00.50    
frame=  495 fps=491 q=29.0 size=     256KiB time=00:00:16.43 bitrate= 127.6kbits/s dup=494 drop=0 speed=16.3x elapsed=0:00:01.00    
frame=  801 fps=529 q=29.0 size=     512KiB time=00:00:26.63 bitrate= 157.5kbits/s dup=754 drop=0 speed=17.6x elapsed=0:00:01.51    
[vf#0:0 @ 0xb79020540] More than 1000 frames duplicated
frame= 1119 fps=554 q=29.0 size=     768KiB time=00:00:37.23 bitrate= 169.0kbits/s dup=1034 drop=0 speed=18.4x elapsed=0:00:02.01    
frame= 1432 fps=567 q=29.0 size=     768KiB time=00:00:47.66 bitrate= 132.0kbits/s dup=1307 drop=0 speed=18.9x elapsed=0:00:02.52    
frame= 1642 fps=542 q=29.0 size=    1024KiB time=00:00:54.66 bitrate= 153.5kbits/s dup=1489 drop=0 speed=  18x elapsed=0:00:03.02    
frame= 1825 fps=516 q=29.0 size=    1280KiB time=00:01:00.76 bitrate= 172.6kbits/s dup=1645 drop=0 speed=17.2x elapsed=0:00:03.53    
frame= 2043 fps=506 q=29.0 size=    1280KiB time=00:01:08.03 bitrate= 154.1kbits/s dup=1833 drop=0 speed=16.8x elapsed=0:00:04.03    
frame= 2278 fps=501 q=29.0 size=    1536KiB time=00:01:15.86 bitrate= 165.9kbits/s dup=2035 drop=0 speed=16.7x elapsed=0:00:04.54    
frame= 2559 fps=507 q=29.0 size=    1792KiB time=00:01:25.23 bitrate= 172.2kbits/s dup=2282 drop=0 speed=16.9x elapsed=0:00:05.04    
frame= 2824 fps=509 q=29.0 size=    2048KiB time=00:01:34.06 bitrate= 178.4kbits/s dup=2496 drop=0 speed=16.9x elapsed=0:00:05.55    
[mp4 @ 0xb79014280] Starting second pass: moving the moov atom to the beginning of the file
[out#0/mp4 @ 0xb7901c240] video:2154KiB audio:0KiB subtitle:0KiB other streams:0KiB global headers:0KiB muxing overhead: 1.605196%
frame= 2880 fps=512 q=-1.0 Lsize=    2189KiB time=00:01:35.93 bitrate= 186.9kbits/s dup=2496 drop=0 speed=  17x elapsed=0:00:05.62    
[libx264 @ 0xb79018a80] frame I:12    Avg QP:12.78  size: 52290
[libx264 @ 0xb79018a80] frame P:726   Avg QP:15.18  size:  1833
[libx264 @ 0xb79018a80] frame B:2142  Avg QP:19.98  size:   115
[libx264 @ 0xb79018a80] consecutive B-frames:  0.8%  0.0%  0.0% 99.2%
[libx264 @ 0xb79018a80] mb I  I16..4: 17.4% 65.5% 17.1%
[libx264 @ 0xb79018a80] mb P  I16..4:  1.0%  0.5%  0.2%  P16..4:  4.2%  0.8%  0.6%  0.0%  0.0%    skip:92.8%
[libx264 @ 0xb79018a80] mb B  I16..4:  0.0%  0.0%  0.0%  B16..8:  2.7%  0.0%  0.0%  direct: 0.0%  skip:97.3%  L0:49.8% L1:49.4% BI: 0.8%
[libx264 @ 0xb79018a80] 8x8 transform intra:46.6% inter:55.7%
[libx264 @ 0xb79018a80] coded y,uvDC,uvAC intra: 44.9% 29.6% 17.3% inter: 0.4% 0.4% 0.0%
[libx264 @ 0xb79018a80] i16 v,h,dc,p: 33% 63%  2%  2%
[libx264 @ 0xb79018a80] i8 v,h,dc,ddl,ddr,vr,hd,vl,hu: 38% 21% 36%  1%  1%  1%  1%  0%  1%
[libx264 @ 0xb79018a80] i4 v,h,dc,ddl,ddr,vr,hd,vl,hu: 38% 30% 15%  2%  3%  3%  3%  3%  3%
[libx264 @ 0xb79018a80] i8c dc,h,v,p: 64% 24% 11%  2%
[libx264 @ 0xb79018a80] Weighted P-Frames: Y:1.5% UV:0.1%
[libx264 @ 0xb79018a80] ref P L0: 76.6%  5.4% 14.5%  3.3%  0.1%
[libx264 @ 0xb79018a80] ref B L0: 73.0% 25.1%  1.9%
[libx264 @ 0xb79018a80] ref B L1: 92.8%  7.2%
[libx264 @ 0xb79018a80] kb/s:183.76
Wrote /Users/junjie/info/artifacts/info-intro-part1/info-intro-part1.mp4
[codex-safe-run] exit 0 elapsed=75.3s
[codex-safe-run] start 2026-06-19 00:33:01 timeout=180.0s cmd=env INFO_INTRO_SOURCE_FPS=4 INFO_INTRO_OUTPUT_FPS=30 node /Users/junjie/info/artifacts/info-intro-part1/render.mjs
rendered 0s / 96s
rendered 1s / 96s
Trying to load the allocator multiple times. This is *not* supported.
rendered 2s / 96s
rendered 3s / 96s
[72955:196303:0619/003306.254987:ERROR:google_apis/gcm/engine/registration_request.cc:291] Registration response error message: PHONE_REGISTRATION_ERROR
[72955:196303:0619/003306.274806:ERROR:google_apis/gcm/engine/registration_request.cc:291] Registration response error message: PHONE_REGISTRATION_ERROR
[72955:196303:0619/003306.278244:ERROR:google_apis/gcm/engine/registration_request.cc:291] Registration response error message: PHONE_REGISTRATION_ERROR
rendered 4s / 96s
rendered 5s / 96s
rendered 6s / 96s
rendered 7s / 96s
rendered 8s / 96s
rendered 9s / 96s
rendered 10s / 96s
rendered 11s / 96s
rendered 12s / 96s
rendered 13s / 96s
rendered 14s / 96s
rendered 15s / 96s
rendered 16s / 96s
rendered 17s / 96s
rendered 18s / 96s
rendered 19s / 96s
rendered 20s / 96s
rendered 21s / 96s
rendered 22s / 96s
Created TensorFlow Lite XNNPACK delegate for CPU.
rendered 23s / 96s
rendered 24s / 96s
rendered 25s / 96s
rendered 26s / 96s
rendered 27s / 96s
rendered 28s / 96s
[75146:202089:0619/003321.407991:VERBOSE1:chrome/updater/updater.cc:374] Version: 150.0.7863.0, opt, ARM_64, command line: /Users/junjie/Library/Application Support/Google/GoogleUpdater/150.0.7863.0/GoogleUpdater.app/Contents/MacOS/GoogleUpdater --wake-all --enable-logging --vmodule=*/components/update_client/*=2,*/chrome/enterprise_companion/*=2,*/chrome/updater/*=2
[75146:202089:0619/003321.408023:VERBOSE1:chrome/updater/updater.cc:377] OS version: 26.5.0, arch: arm64, System uptime (seconds): 829, parent pid: 72955
[75146:202089:0619/003321.410029:VERBOSE1:chrome/updater/updater.cc:382] Available disk space in install directory (/Users/junjie/Library/Application Support/Google/GoogleUpdater): 64293023744B (59.878GiB) / 494353338368B (460.402GiB)
[75146:202089:0619/003321.410042:VERBOSE1:chrome/updater/updater.cc:386] Available disk space in temporary directory (/var/folders/nf/p_gz13xx08n82_nn23sptk9r0000gn/T/): 64293023744B (59.878GiB) / 494353338368B (460.402GiB)
[75146:202089:0619/003321.410094:VERBOSE2:chrome/updater/event_history.cc:265] Emitted a UPDATER_PROCESS START event to the history log
[75153:202102:0619/003321.417616:VERBOSE1:chrome/updater/updater.cc:374] Version: 150.0.7863.0, opt, ARM_64, command line: /Users/junjie/Library/Application Support/Google/GoogleUpdater/150.0.7863.0/GoogleUpdater.app/Contents/MacOS/GoogleUpdater --crash-handler --database=/Users/junjie/Library/Application Support/Google/GoogleUpdater/150.0.7863.0/Crashpad --url=https://clients2.google.com/cr/report --annotation=prod=Update4 --annotation=ver=150.0.7863.0 --handshake-fd=6 --enable-logging --vmodule=*/components/update_client/*=2,*/chrome/enterprise_companion/*=2,*/chrome/updater/*=2
[75153:202102:0619/003321.417651:VERBOSE1:chrome/updater/updater.cc:377] OS version: 26.5.0, arch: arm64, System uptime (seconds): 829, parent pid: 1
[75153:202102:0619/003321.419394:VERBOSE1:chrome/updater/updater.cc:382] Available disk space in install directory (/Users/junjie/Library/Application Support/Google/GoogleUpdater): 64292491264B (59.877GiB) / 494353338368B (460.402GiB)
[75153:202102:0619/003321.419404:VERBOSE1:chrome/updater/updater.cc:386] Available disk space in temporary directory (/var/folders/nf/p_gz13xx08n82_nn23sptk9r0000gn/T/): 64292491264B (59.877GiB) / 494353338368B (460.402GiB)
[75153:202102:0619/003321.419455:VERBOSE2:chrome/updater/event_history.cc:265] Emitted a UPDATER_PROCESS START event to the history log
[75146:202089:0619/003321.419936:VERBOSE1:chrome/updater/crash_reporter.cc:124] Crash handler launched and ready.
[75146:202089:0619/003321.421008:VERBOSE1:chrome/updater/crash_client.cc:108] Found 0 completed crash reports
[75146:202089:0619/003321.421117:VERBOSE1:chrome/updater/crash_client.cc:132] Found 0 pending crash reports
[75146:202089:0619/003321.421211:ERROR:third_party/crashpad/crashpad/util/file/file_io_posix.cc:145] open /Users/junjie/Library/Application Support/Google/Chrome Dev/Crashpad/settings.dat: No such file or directory (2)
[75146:202089:0619/003321.421223:ERROR:third_party/crashpad/crashpad/util/file/file_io_posix.cc:145] open /Users/junjie/Library/Application Support/Google/RLZ/Crashpad/settings.dat: No such file or directory (2)
[75146:202089:0619/003321.421415:VERBOSE1:chrome/updater/updater.cc:105] Crash reporting initialized.
[75146:202114:0619/003321.421895:VERBOSE1:chrome/updater/app/app_wakeall.cc:58] Launching `/Users/junjie/Library/Application Support/Google/GoogleUpdater/150.0.7863.0/GoogleUpdater.app/Contents/MacOS/GoogleUpdater --wake`
[75156:202118:0619/003321.428233:VERBOSE1:chrome/updater/updater.cc:374] Version: 150.0.7863.0, opt, ARM_64, command line: /Users/junjie/Library/Application Support/Google/GoogleUpdater/150.0.7863.0/GoogleUpdater.app/Contents/MacOS/GoogleUpdater --wake --enable-logging --vmodule=*/components/update_client/*=2,*/chrome/enterprise_companion/*=2,*/chrome/updater/*=2
[75156:202118:0619/003321.428266:VERBOSE1:chrome/updater/updater.cc:377] OS version: 26.5.0, arch: arm64, System uptime (seconds): 829, parent pid: 75146
[75156:202118:0619/003321.429934:VERBOSE1:chrome/updater/updater.cc:382] Available disk space in install directory (/Users/junjie/Library/Application Support/Google/GoogleUpdater): 64292483072B (59.877GiB) / 494353338368B (460.402GiB)
[75156:202118:0619/003321.429958:VERBOSE1:chrome/updater/updater.cc:386] Available disk space in temporary directory (/var/folders/nf/p_gz13xx08n82_nn23sptk9r0000gn/T/): 64292483072B (59.877GiB) / 494353338368B (460.402GiB)
[75156:202118:0619/003321.430008:VERBOSE2:chrome/updater/event_history.cc:265] Emitted a UPDATER_PROCESS START event to the history log
[75158:202128:0619/003321.438129:VERBOSE1:chrome/updater/updater.cc:374] Version: 150.0.7863.0, opt, ARM_64, command line: /Users/junjie/Library/Application Support/Google/GoogleUpdater/150.0.7863.0/GoogleUpdater.app/Contents/MacOS/GoogleUpdater --crash-handler --database=/Users/junjie/Library/Application Support/Google/GoogleUpdater/150.0.7863.0/Crashpad --url=https://clients2.google.com/cr/report --annotation=prod=Update4 --annotation=ver=150.0.7863.0 --handshake-fd=6 --enable-logging --vmodule=*/components/update_client/*=2,*/chrome/enterprise_companion/*=2,*/chrome/updater/*=2
[75158:202128:0619/003321.438165:VERBOSE1:chrome/updater/updater.cc:377] OS version: 26.5.0, arch: arm64, System uptime (seconds): 829, parent pid: 1
[75158:202128:0619/003321.440237:VERBOSE1:chrome/updater/updater.cc:382] Available disk space in install directory (/Users/junjie/Library/Application Support/Google/GoogleUpdater): 64292413440B (59.877GiB) / 494353338368B (460.402GiB)
[75158:202128:0619/003321.440247:VERBOSE1:chrome/updater/updater.cc:386] Available disk space in temporary directory (/var/folders/nf/p_gz13xx08n82_nn23sptk9r0000gn/T/): 64292413440B (59.877GiB) / 494353338368B (460.402GiB)
[75158:202128:0619/003321.440300:VERBOSE2:chrome/updater/event_history.cc:265] Emitted a UPDATER_PROCESS START event to the history log
[75156:202118:0619/003321.440723:VERBOSE1:chrome/updater/crash_reporter.cc:124] Crash handler launched and ready.
[75156:202118:0619/003321.441342:VERBOSE1:chrome/updater/crash_client.cc:108] Found 0 completed crash reports
[75156:202118:0619/003321.441398:VERBOSE1:chrome/updater/crash_client.cc:132] Found 0 pending crash reports
[75156:202118:0619/003321.441467:ERROR:third_party/crashpad/crashpad/util/file/file_io_posix.cc:145] open /Users/junjie/Library/Application Support/Google/Chrome Dev/Crashpad/settings.dat: No such file or directory (2)
[75156:202118:0619/003321.441476:ERROR:third_party/crashpad/crashpad/util/file/file_io_posix.cc:145] open /Users/junjie/Library/Application Support/Google/RLZ/Crashpad/settings.dat: No such file or directory (2)
[75156:202118:0619/003321.441698:VERBOSE1:chrome/updater/updater.cc:105] Crash reporting initialized.
[75156:202118:0619/003321.441859:VERBOSE1:chrome/updater/ipc/update_service_internal_proxy_mojo.cc:61] Run
rendered 29s / 96s
rendered 30s / 96s
rendered 31s / 96s
rendered 32s / 96s
rendered 33s / 96s
rendered 34s / 96s
rendered 35s / 96s
rendered 36s / 96s
rendered 37s / 96s
rendered 38s / 96s
rendered 39s / 96s
rendered 40s / 96s
rendered 41s / 96s
rendered 42s / 96s
rendered 43s / 96s
rendered 44s / 96s
rendered 45s / 96s
rendered 46s / 96s
rendered 47s / 96s
rendered 48s / 96s
rendered 49s / 96s
rendered 50s / 96s
rendered 51s / 96s
[72955:196303:0619/003335.573689:ERROR:google_apis/gcm/engine/registration_request.cc:291] Registration response error message: DEPRECATED_ENDPOINT
rendered 52s / 96s
rendered 53s / 96s
rendered 54s / 96s
rendered 55s / 96s
rendered 56s / 96s
[75156:202118:0619/003338.227575:VERBOSE1:chrome/updater/app/app.cc:52] Shutdown: 0
[75156:202118:0619/003338.227803:VERBOSE2:chrome/updater/event_history.cc:265] Emitted a UPDATER_PROCESS END event to the history log
[75156:202118:0619/003338.227815:VERBOSE1:chrome/updater/updater.cc:419] UpdaterMain (--wake) returned 0.
[75146:202114:0619/003338.493799:VERBOSE1:chrome/updater/app/app_wakeall.cc:68] `/Users/junjie/Library/Application Support/Google/GoogleUpdater/150.0.7863.0/GoogleUpdater.app/Contents/MacOS/GoogleUpdater --wake` exited 0
[75146:202089:0619/003338.493908:VERBOSE1:chrome/updater/app/app.cc:52] Shutdown: 0
[75146:202089:0619/003338.494165:VERBOSE2:chrome/updater/event_history.cc:265] Emitted a UPDATER_PROCESS END event to the history log
[75146:202089:0619/003338.494174:VERBOSE1:chrome/updater/updater.cc:419] UpdaterMain (--wake-all) returned 0.
rendered 57s / 96s
rendered 58s / 96s
rendered 59s / 96s
rendered 60s / 96s
rendered 61s / 96s
rendered 62s / 96s
rendered 63s / 96s
rendered 64s / 96s
rendered 65s / 96s
rendered 66s / 96s
rendered 67s / 96s
rendered 68s / 96s
rendered 69s / 96s
rendered 70s / 96s
rendered 71s / 96s
rendered 72s / 96s
[75158:202128:0619/003348.233047:VERBOSE2:chrome/updater/event_history.cc:265] Emitted a UPDATER_PROCESS END event to the history log
[75158:202128:0619/003348.233064:VERBOSE1:chrome/updater/updater.cc:419] UpdaterMain (--crash-handler) returned 0.
[75153:202102:0619/003348.234086:VERBOSE2:chrome/updater/event_history.cc:265] Emitted a UPDATER_PROCESS END event to the history log
[75153:202102:0619/003348.234104:VERBOSE1:chrome/updater/updater.cc:419] UpdaterMain (--crash-handler) returned 0.
rendered 73s / 96s
rendered 74s / 96s
rendered 75s / 96s
rendered 76s / 96s
rendered 77s / 96s
rendered 78s / 96s
rendered 79s / 96s
rendered 80s / 96s
rendered 81s / 96s
rendered 82s / 96s
rendered 83s / 96s
rendered 84s / 96s
rendered 85s / 96s
rendered 86s / 96s
rendered 87s / 96s
rendered 88s / 96s
rendered 89s / 96s
rendered 90s / 96s
rendered 91s / 96s
rendered 92s / 96s
rendered 93s / 96s
rendered 94s / 96s
rendered 95s / 96s
ffmpeg version 8.0.1 Copyright (c) 2000-2025 the FFmpeg developers
  built with Apple clang version 17.0.0 (clang-1700.6.3.2)
  configuration: --prefix=/opt/homebrew/Cellar/ffmpeg/8.0.1_4 --enable-shared --enable-pthreads --enable-version3 --cc=clang --host-cflags= --host-ldflags= --enable-ffplay --enable-gpl --enable-libsvtav1 --enable-libopus --enable-libx264 --enable-libmp3lame --enable-libdav1d --enable-libvpx --enable-libx265 --enable-openssl --enable-videotoolbox --enable-audiotoolbox --enable-neon
  libavutil      60.  8.100 / 60.  8.100
  libavcodec     62. 11.100 / 62. 11.100
  libavformat    62.  3.100 / 62.  3.100
  libavdevice    62.  1.100 / 62.  1.100
  libavfilter    11.  4.100 / 11.  4.100
  libswscale      9.  1.100 /  9.  1.100
  libswresample   6.  1.100 /  6.  1.100
Input #0, image2, from '/Users/junjie/info/artifacts/info-intro-part1/frames/frame-%05d.png':
  Duration: 00:01:36.00, start: 0.000000, bitrate: N/A
  Stream #0:0: Video: png, rgb24(pc, gbr/unknown/unknown), 1280x720, 4 fps, 4 tbr, 4 tbn
Stream mapping:
  Stream #0:0 -> #0:0 (png (native) -> h264 (libx264))
Press [q] to stop, [?] for help
[libx264 @ 0x9d3018a80] using cpu capabilities: ARMv8 NEON DotProd I8MM
[libx264 @ 0x9d3018a80] profile High, level 3.1, 4:2:0, 8-bit
[libx264 @ 0x9d3018a80] 264 - core 165 r3222 b35605a - H.264/MPEG-4 AVC codec - Copyleft 2003-2025 - http://www.videolan.org/x264.html - options: cabac=1 ref=3 deblock=1:0:0 analyse=0x3:0x113 me=hex subme=7 psy=1 psy_rd=1.00:0.00 mixed_ref=1 me_range=16 chroma_me=1 trellis=1 8x8dct=1 cqm=0 deadzone=21,11 fast_pskip=1 chroma_qp_offset=-2 threads=15 lookahead_threads=2 sliced_threads=0 nr=0 decimate=1 interlaced=0 bluray_compat=0 constrained_intra=0 bframes=3 b_pyramid=2 b_adapt=1 b_bias=0 direct=1 weightb=1 open_gop=0 weightp=2 keyint=250 keyint_min=25 scenecut=40 intra_refresh=0 rc_lookahead=40 rc=crf mbtree=1 crf=23.0 qcomp=0.60 qpmin=0 qpmax=69 qpstep=4 ip_ratio=1.40 aq=1:1.00
Output #0, mp4, to '/Users/junjie/info/artifacts/info-intro-part1/info-intro-part1.mp4':
  Metadata:
    encoder         : Lavf62.3.100
  Stream #0:0: Video: h264 (avc1 / 0x31637661), yuv420p(tv, progressive), 1280x720, q=2-31, 30 fps, 15360 tbn
    Metadata:
      encoder         : Lavc62.11.100 libx264
    Side data:
      cpb: bitrate max/min/avg: 0/0/0 buffer size: 0 vbv_delay: N/A
frame=  263 fps=0.0 q=29.0 size=       0KiB time=00:00:08.70 bitrate=   0.0kbits/s dup=293 drop=0 speed=17.2x elapsed=0:00:00.50    
frame=  575 fps=569 q=29.0 size=     256KiB time=00:00:19.10 bitrate= 109.8kbits/s dup=559 drop=0 speed=18.9x elapsed=0:00:01.01    
frame=  856 fps=565 q=29.0 size=     512KiB time=00:00:28.46 bitrate= 147.4kbits/s dup=806 drop=0 speed=18.8x elapsed=0:00:01.51    
[vf#0:0 @ 0x9d3024540] More than 1000 frames duplicated
frame= 1167 fps=578 q=29.0 size=     768KiB time=00:00:38.83 bitrate= 162.0kbits/s dup=1073 drop=0 speed=19.2x elapsed=0:00:02.01    
frame= 1477 fps=585 q=29.0 size=     768KiB time=00:00:49.16 bitrate= 128.0kbits/s dup=1346 drop=0 speed=19.5x elapsed=0:00:02.52    
frame= 1684 fps=556 q=29.0 size=    1024KiB time=00:00:56.06 bitrate= 149.6kbits/s dup=1521 drop=0 speed=18.5x elapsed=0:00:03.02    
frame= 1973 fps=559 q=29.0 size=    1280KiB time=00:01:05.70 bitrate= 159.6kbits/s dup=1775 drop=0 speed=18.6x elapsed=0:00:03.53    
frame= 2260 fps=560 q=29.0 size=    1536KiB time=00:01:15.26 bitrate= 167.2kbits/s dup=2022 drop=0 speed=18.7x elapsed=0:00:04.03    
frame= 2540 fps=560 q=29.0 size=    1792KiB time=00:01:24.60 bitrate= 173.5kbits/s dup=2262 drop=0 speed=18.6x elapsed=0:00:04.53    
frame= 2809 fps=557 q=29.0 size=    2048KiB time=00:01:33.56 bitrate= 179.3kbits/s dup=2496 drop=0 speed=18.6x elapsed=0:00:05.04    
[mp4 @ 0x9d2c24280] Starting second pass: moving the moov atom to the beginning of the file
[out#0/mp4 @ 0x9d301c240] video:2120KiB audio:0KiB subtitle:0KiB other streams:0KiB global headers:0KiB muxing overhead: 1.630639%
frame= 2880 fps=560 q=-1.0 Lsize=    2155KiB time=00:01:35.93 bitrate= 184.0kbits/s dup=2496 drop=0 speed=18.7x elapsed=0:00:05.14    
[libx264 @ 0x9d3018a80] frame I:12    Avg QP:12.72  size: 51773
[libx264 @ 0x9d3018a80] frame P:726   Avg QP:15.15  size:  1785
[libx264 @ 0x9d3018a80] frame B:2142  Avg QP:19.96  size:   118
[libx264 @ 0x9d3018a80] consecutive B-frames:  0.8%  0.0%  0.0% 99.2%
[libx264 @ 0x9d3018a80] mb I  I16..4: 17.3% 66.0% 16.7%
[libx264 @ 0x9d3018a80] mb P  I16..4:  0.9%  0.5%  0.2%  P16..4:  4.4%  0.8%  0.6%  0.0%  0.0%    skip:92.7%
[libx264 @ 0x9d3018a80] mb B  I16..4:  0.0%  0.0%  0.0%  B16..8:  2.8%  0.0%  0.0%  direct: 0.0%  skip:97.2%  L0:51.1% L1:48.2% BI: 0.7%
[libx264 @ 0x9d3018a80] 8x8 transform intra:46.9% inter:56.9%
[libx264 @ 0x9d3018a80] coded y,uvDC,uvAC intra: 45.2% 29.6% 17.3% inter: 0.4% 0.4% 0.0%
[libx264 @ 0x9d3018a80] i16 v,h,dc,p: 33% 62%  2%  2%
[libx264 @ 0x9d3018a80] i8 v,h,dc,ddl,ddr,vr,hd,vl,hu: 38% 21% 36%  1%  1%  1%  1%  0%  1%
[libx264 @ 0x9d3018a80] i4 v,h,dc,ddl,ddr,vr,hd,vl,hu: 37% 30% 15%  2%  3%  3%  3%  3%  3%
[libx264 @ 0x9d3018a80] i8c dc,h,v,p: 65% 23% 11%  2%
[libx264 @ 0x9d3018a80] Weighted P-Frames: Y:2.1% UV:0.1%
[libx264 @ 0x9d3018a80] ref P L0: 73.3%  5.1% 18.0%  3.5%  0.1%
[libx264 @ 0x9d3018a80] ref B L0: 70.0% 28.0%  2.0%
[libx264 @ 0x9d3018a80] ref B L1: 92.9%  7.1%
[libx264 @ 0x9d3018a80] kb/s:180.89
Wrote /Users/junjie/info/artifacts/info-intro-part1/info-intro-part1.mp4
[codex-safe-run] exit 0 elapsed=65.5s
[codex-safe-run] start 2026-06-19 00:42:40 timeout=180.0s cmd=env INFO_INTRO_SOURCE_FPS=4 INFO_INTRO_OUTPUT_FPS=30 node /Users/junjie/info/artifacts/info-intro-part1/render.mjs
rendered 0s / 84s
rendered 1s / 84s
rendered 2s / 84s
rendered 3s / 84s
rendered 4s / 84s
rendered 5s / 84s
rendered 6s / 84s
rendered 7s / 84s
Trying to load the allocator multiple times. This is *not* supported.
rendered 8s / 84s
rendered 9s / 84s
rendered 10s / 84s
rendered 11s / 84s
[75297:403711:0619/004247.451623:ERROR:google_apis/gcm/engine/registration_request.cc:291] Registration response error message: PHONE_REGISTRATION_ERROR
[75297:403711:0619/004247.451689:ERROR:google_apis/gcm/engine/registration_request.cc:291] Registration response error message: PHONE_REGISTRATION_ERROR
[75297:403711:0619/004247.459545:ERROR:google_apis/gcm/engine/registration_request.cc:291] Registration response error message: PHONE_REGISTRATION_ERROR
rendered 12s / 84s
rendered 13s / 84s
rendered 14s / 84s
rendered 15s / 84s
rendered 16s / 84s
rendered 17s / 84s
rendered 18s / 84s
rendered 19s / 84s
rendered 20s / 84s
rendered 21s / 84s
rendered 22s / 84s
rendered 23s / 84s
rendered 24s / 84s
rendered 25s / 84s
rendered 26s / 84s
rendered 27s / 84s
rendered 28s / 84s
rendered 29s / 84s
rendered 30s / 84s
rendered 31s / 84s
rendered 32s / 84s
rendered 33s / 84s
rendered 34s / 84s
rendered 35s / 84s
rendered 36s / 84s
rendered 37s / 84s
rendered 38s / 84s
rendered 39s / 84s
rendered 40s / 84s
rendered 41s / 84s
rendered 42s / 84s
rendered 43s / 84s
rendered 44s / 84s
rendered 45s / 84s
rendered 46s / 84s
rendered 47s / 84s
rendered 48s / 84s
rendered 49s / 84s
rendered 50s / 84s
rendered 51s / 84s
rendered 52s / 84s
[78331:410700:0619/004259.975837:VERBOSE1:chrome/updater/updater.cc:374] Version: 150.0.7863.0, opt, ARM_64, command line: /Users/junjie/Library/Application Support/Google/GoogleUpdater/150.0.7863.0/GoogleUpdater.app/Contents/MacOS/GoogleUpdater --wake-all --enable-logging --vmodule=*/components/update_client/*=2,*/chrome/enterprise_companion/*=2,*/chrome/updater/*=2
[78331:410700:0619/004259.975871:VERBOSE1:chrome/updater/updater.cc:377] OS version: 26.5.0, arch: arm64, System uptime (seconds): 1407, parent pid: 75297
[78331:410700:0619/004259.977798:VERBOSE1:chrome/updater/updater.cc:382] Available disk space in install directory (/Users/junjie/Library/Application Support/Google/GoogleUpdater): 62528196608B (58.234GiB) / 494353338368B (460.402GiB)
[78331:410700:0619/004259.977811:VERBOSE1:chrome/updater/updater.cc:386] Available disk space in temporary directory (/var/folders/nf/p_gz13xx08n82_nn23sptk9r0000gn/T/): 62528196608B (58.234GiB) / 494353338368B (460.402GiB)
[78331:410700:0619/004259.977864:VERBOSE2:chrome/updater/event_history.cc:265] Emitted a UPDATER_PROCESS START event to the history log
[78335:410713:0619/004259.985477:VERBOSE1:chrome/updater/updater.cc:374] Version: 150.0.7863.0, opt, ARM_64, command line: /Users/junjie/Library/Application Support/Google/GoogleUpdater/150.0.7863.0/GoogleUpdater.app/Contents/MacOS/GoogleUpdater --crash-handler --database=/Users/junjie/Library/Application Support/Google/GoogleUpdater/150.0.7863.0/Crashpad --url=https://clients2.google.com/cr/report --annotation=prod=Update4 --annotation=ver=150.0.7863.0 --handshake-fd=6 --enable-logging --vmodule=*/components/update_client/*=2,*/chrome/enterprise_companion/*=2,*/chrome/updater/*=2
[78335:410713:0619/004259.985504:VERBOSE1:chrome/updater/updater.cc:377] OS version: 26.5.0, arch: arm64, System uptime (seconds): 1407, parent pid: 1
[78335:410713:0619/004259.987303:VERBOSE1:chrome/updater/updater.cc:382] Available disk space in install directory (/Users/junjie/Library/Application Support/Google/GoogleUpdater): 62528073728B (58.234GiB) / 494353338368B (460.402GiB)
[78335:410713:0619/004259.987316:VERBOSE1:chrome/updater/updater.cc:386] Available disk space in temporary directory (/var/folders/nf/p_gz13xx08n82_nn23sptk9r0000gn/T/): 62528073728B (58.234GiB) / 494353338368B (460.402GiB)
[78335:410713:0619/004259.987382:VERBOSE2:chrome/updater/event_history.cc:265] Emitted a UPDATER_PROCESS START event to the history log
[78331:410700:0619/004259.987818:VERBOSE1:chrome/updater/crash_reporter.cc:124] Crash handler launched and ready.
[78331:410700:0619/004259.988401:VERBOSE1:chrome/updater/crash_client.cc:108] Found 0 completed crash reports
[78331:410700:0619/004259.988464:VERBOSE1:chrome/updater/crash_client.cc:132] Found 0 pending crash reports
[78331:410700:0619/004259.988539:ERROR:third_party/crashpad/crashpad/util/file/file_io_posix.cc:145] open /Users/junjie/Library/Application Support/Google/Chrome Dev/Crashpad/settings.dat: No such file or directory (2)
[78331:410700:0619/004259.988550:ERROR:third_party/crashpad/crashpad/util/file/file_io_posix.cc:145] open /Users/junjie/Library/Application Support/Google/RLZ/Crashpad/settings.dat: No such file or directory (2)
[78331:410700:0619/004259.988734:VERBOSE1:chrome/updater/updater.cc:105] Crash reporting initialized.
[78331:410721:0619/004259.989005:VERBOSE1:chrome/updater/app/app_wakeall.cc:58] Launching `/Users/junjie/Library/Application Support/Google/GoogleUpdater/150.0.7863.0/GoogleUpdater.app/Contents/MacOS/GoogleUpdater --wake`
[78336:410725:0619/004259.995761:VERBOSE1:chrome/updater/updater.cc:374] Version: 150.0.7863.0, opt, ARM_64, command line: /Users/junjie/Library/Application Support/Google/GoogleUpdater/150.0.7863.0/GoogleUpdater.app/Contents/MacOS/GoogleUpdater --wake --enable-logging --vmodule=*/components/update_client/*=2,*/chrome/enterprise_companion/*=2,*/chrome/updater/*=2
[78336:410725:0619/004259.995795:VERBOSE1:chrome/updater/updater.cc:377] OS version: 26.5.0, arch: arm64, System uptime (seconds): 1407, parent pid: 78331
[78336:410725:0619/004259.997754:VERBOSE1:chrome/updater/updater.cc:382] Available disk space in install directory (/Users/junjie/Library/Application Support/Google/GoogleUpdater): 62528069632B (58.234GiB) / 494353338368B (460.402GiB)
[78336:410725:0619/004259.997767:VERBOSE1:chrome/updater/updater.cc:386] Available disk space in temporary directory (/var/folders/nf/p_gz13xx08n82_nn23sptk9r0000gn/T/): 62528069632B (58.234GiB) / 494353338368B (460.402GiB)
[78336:410725:0619/004259.997843:VERBOSE2:chrome/updater/event_history.cc:265] Emitted a UPDATER_PROCESS START event to the history log
[78338:410730:0619/004300.005347:VERBOSE1:chrome/updater/updater.cc:374] Version: 150.0.7863.0, opt, ARM_64, command line: /Users/junjie/Library/Application Support/Google/GoogleUpdater/150.0.7863.0/GoogleUpdater.app/Contents/MacOS/GoogleUpdater --crash-handler --database=/Users/junjie/Library/Application Support/Google/GoogleUpdater/150.0.7863.0/Crashpad --url=https://clients2.google.com/cr/report --annotation=prod=Update4 --annotation=ver=150.0.7863.0 --handshake-fd=6 --enable-logging --vmodule=*/components/update_client/*=2,*/chrome/enterprise_companion/*=2,*/chrome/updater/*=2
[78338:410730:0619/004300.005379:VERBOSE1:chrome/updater/updater.cc:377] OS version: 26.5.0, arch: arm64, System uptime (seconds): 1407, parent pid: 1
[78338:410730:0619/004300.007136:VERBOSE1:chrome/updater/updater.cc:382] Available disk space in install directory (/Users/junjie/Library/Application Support/Google/GoogleUpdater): 62528053248B (58.234GiB) / 494353338368B (460.402GiB)
[78338:410730:0619/004300.007147:VERBOSE1:chrome/updater/updater.cc:386] Available disk space in temporary directory (/var/folders/nf/p_gz13xx08n82_nn23sptk9r0000gn/T/): 62528053248B (58.234GiB) / 494353338368B (460.402GiB)
[78338:410730:0619/004300.007206:VERBOSE2:chrome/updater/event_history.cc:265] Emitted a UPDATER_PROCESS START event to the history log
[78336:410725:0619/004300.007576:VERBOSE1:chrome/updater/crash_reporter.cc:124] Crash handler launched and ready.
[78336:410725:0619/004300.008072:VERBOSE1:chrome/updater/crash_client.cc:108] Found 0 completed crash reports
[78336:410725:0619/004300.008129:VERBOSE1:chrome/updater/crash_client.cc:132] Found 0 pending crash reports
[78336:410725:0619/004300.008195:ERROR:third_party/crashpad/crashpad/util/file/file_io_posix.cc:145] open /Users/junjie/Library/Application Support/Google/Chrome Dev/Crashpad/settings.dat: No such file or directory (2)
[78336:410725:0619/004300.008205:ERROR:third_party/crashpad/crashpad/util/file/file_io_posix.cc:145] open /Users/junjie/Library/Application Support/Google/RLZ/Crashpad/settings.dat: No such file or directory (2)
[78336:410725:0619/004300.008393:VERBOSE1:chrome/updater/updater.cc:105] Crash reporting initialized.
[78336:410725:0619/004300.008538:VERBOSE1:chrome/updater/ipc/update_service_internal_proxy_mojo.cc:61] Run
rendered 53s / 84s
rendered 54s / 84s
rendered 55s / 84s
rendered 56s / 84s
rendered 57s / 84s
rendered 58s / 84s
rendered 59s / 84s
rendered 60s / 84s
rendered 61s / 84s
rendered 62s / 84s
rendered 63s / 84s
rendered 64s / 84s
rendered 65s / 84s
rendered 66s / 84s
rendered 67s / 84s
rendered 68s / 84s
rendered 69s / 84s
rendered 70s / 84s
rendered 71s / 84s
rendered 72s / 84s
rendered 73s / 84s
rendered 74s / 84s
rendered 75s / 84s
rendered 76s / 84s
rendered 77s / 84s
rendered 78s / 84s
rendered 79s / 84s
rendered 80s / 84s
rendered 81s / 84s
rendered 82s / 84s
rendered 83s / 84s
ffmpeg version 8.0.1 Copyright (c) 2000-2025 the FFmpeg developers
  built with Apple clang version 17.0.0 (clang-1700.6.3.2)
  configuration: --prefix=/opt/homebrew/Cellar/ffmpeg/8.0.1_4 --enable-shared --enable-pthreads --enable-version3 --cc=clang --host-cflags= --host-ldflags= --enable-ffplay --enable-gpl --enable-libsvtav1 --enable-libopus --enable-libx264 --enable-libmp3lame --enable-libdav1d --enable-libvpx --enable-libx265 --enable-openssl --enable-videotoolbox --enable-audiotoolbox --enable-neon
  libavutil      60.  8.100 / 60.  8.100
  libavcodec     62. 11.100 / 62. 11.100
  libavformat    62.  3.100 / 62.  3.100
  libavdevice    62.  1.100 / 62.  1.100
  libavfilter    11.  4.100 / 11.  4.100
  libswscale      9.  1.100 /  9.  1.100
  libswresample   6.  1.100 /  6.  1.100
Input #0, image2, from '/Users/junjie/info/artifacts/info-intro-part1/frames/frame-%05d.png':
  Duration: 00:01:24.00, start: 0.000000, bitrate: N/A
  Stream #0:0: Video: png, rgb24(pc, gbr/unknown/unknown), 1280x720, 4 fps, 4 tbr, 4 tbn
Stream mapping:
  Stream #0:0 -> #0:0 (png (native) -> h264 (libx264))
Press [q] to stop, [?] for help
[libx264 @ 0x7ff018a80] using cpu capabilities: ARMv8 NEON DotProd I8MM
[libx264 @ 0x7ff018a80] profile High, level 3.1, 4:2:0, 8-bit
[libx264 @ 0x7ff018a80] 264 - core 165 r3222 b35605a - H.264/MPEG-4 AVC codec - Copyleft 2003-2025 - http://www.videolan.org/x264.html - options: cabac=1 ref=3 deblock=1:0:0 analyse=0x3:0x113 me=hex subme=7 psy=1 psy_rd=1.00:0.00 mixed_ref=1 me_range=16 chroma_me=1 trellis=1 8x8dct=1 cqm=0 deadzone=21,11 fast_pskip=1 chroma_qp_offset=-2 threads=15 lookahead_threads=2 sliced_threads=0 nr=0 decimate=1 interlaced=0 bluray_compat=0 constrained_intra=0 bframes=3 b_pyramid=2 b_adapt=1 b_bias=0 direct=1 weightb=1 open_gop=0 weightp=2 keyint=250 keyint_min=25 scenecut=40 intra_refresh=0 rc_lookahead=40 rc=crf mbtree=1 crf=23.0 qcomp=0.60 qpmin=0 qpmax=69 qpstep=4 ip_ratio=1.40 aq=1:1.00
Output #0, mp4, to '/Users/junjie/info/artifacts/info-intro-part1/info-intro-part1.mp4':
  Metadata:
    encoder         : Lavf62.3.100
  Stream #0:0: Video: h264 (avc1 / 0x31637661), yuv420p(tv, progressive), 1280x720, q=2-31, 30 fps, 15360 tbn
    Metadata:
      encoder         : Lavc62.11.100 libx264
    Side data:
      cpb: bitrate max/min/avg: 0/0/0 buffer size: 0 vbv_delay: N/A
frame=  284 fps=0.0 q=29.0 size=       0KiB time=00:00:09.40 bitrate=   0.0kbits/s dup=306 drop=0 speed=18.6x elapsed=0:00:00.50    
frame=  631 fps=625 q=29.0 size=     512KiB time=00:00:20.96 bitrate= 200.1kbits/s dup=611 drop=0 speed=20.8x elapsed=0:00:01.01    
frame=  941 fps=621 q=29.0 size=     768KiB time=00:00:31.30 bitrate= 201.0kbits/s dup=878 drop=0 speed=20.7x elapsed=0:00:01.51    
[vf#0:0 @ 0x7fec2c540] More than 1000 frames duplicated
frame= 1303 fps=645 q=29.0 size=    1024KiB time=00:00:43.36 bitrate= 193.4kbits/s dup=1190 drop=0 speed=21.5x elapsed=0:00:02.01    
frame= 1672 fps=663 q=29.0 size=    1280KiB time=00:00:55.66 bitrate= 188.4kbits/s dup=1515 drop=0 speed=22.1x elapsed=0:00:02.52    
frame= 1915 fps=633 q=29.0 size=    1536KiB time=00:01:03.76 bitrate= 197.3kbits/s dup=1723 drop=0 speed=21.1x elapsed=0:00:03.02    
frame= 2241 fps=635 q=29.0 size=    1792KiB time=00:01:14.63 bitrate= 196.7kbits/s dup=2002 drop=0 speed=21.1x elapsed=0:00:03.52    
[mp4 @ 0x7ff014280] Starting second pass: moving the moov atom to the beginning of the file
[out#0/mp4 @ 0x7ff004840] video:2197KiB audio:0KiB subtitle:0KiB other streams:0KiB global headers:0KiB muxing overhead: 1.381654%
frame= 2520 fps=639 q=-1.0 Lsize=    2227KiB time=00:01:23.93 bitrate= 217.4kbits/s dup=2184 drop=0 speed=21.3x elapsed=0:00:03.94    
[libx264 @ 0x7ff018a80] frame I:11    Avg QP:13.92  size: 56483
[libx264 @ 0x7ff018a80] frame P:635   Avg QP:16.89  size:  2260
[libx264 @ 0x7ff018a80] frame B:1874  Avg QP:23.25  size:   103
[libx264 @ 0x7ff018a80] consecutive B-frames:  0.8%  0.0%  0.1% 99.0%
[libx264 @ 0x7ff018a80] mb I  I16..4: 40.3% 18.2% 41.5%
[libx264 @ 0x7ff018a80] mb P  I16..4:  0.6%  0.2%  0.4%  P16..4:  2.9%  1.0%  0.6%  0.0%  0.0%    skip:94.3%
[libx264 @ 0x7ff018a80] mb B  I16..4:  0.0%  0.0%  0.0%  B16..8:  2.5%  0.0%  0.0%  direct: 0.0%  skip:97.5%  L0:55.5% L1:43.9% BI: 0.6%
[libx264 @ 0x7ff018a80] 8x8 transform intra:20.8% inter:39.4%
[libx264 @ 0x7ff018a80] coded y,uvDC,uvAC intra: 34.2% 34.0% 23.4% inter: 0.4% 0.4% 0.1%
[libx264 @ 0x7ff018a80] i16 v,h,dc,p: 50% 49%  1%  0%
[libx264 @ 0x7ff018a80] i8 v,h,dc,ddl,ddr,vr,hd,vl,hu: 24% 16% 53%  2%  1%  1%  1%  1%  1%
[libx264 @ 0x7ff018a80] i4 v,h,dc,ddl,ddr,vr,hd,vl,hu: 45% 31% 13%  2%  2%  2%  2%  2%  2%
[libx264 @ 0x7ff018a80] i8c dc,h,v,p: 51% 27% 21%  1%
[libx264 @ 0x7ff018a80] Weighted P-Frames: Y:1.1% UV:0.8%
[libx264 @ 0x7ff018a80] ref P L0: 72.0% 14.9% 10.2%  2.9%  0.0%
[libx264 @ 0x7ff018a80] ref B L0: 64.1% 34.9%  1.1%
[libx264 @ 0x7ff018a80] ref B L1: 96.3%  3.7%
[libx264 @ 0x7ff018a80] kb/s:214.19
Wrote /Users/junjie/info/artifacts/info-intro-part1/info-intro-part1.mp4
[78336:410725:0619/004317.103534:VERBOSE1:chrome/updater/app/app.cc:52] Shutdown: 0
[78336:410725:0619/004317.104094:VERBOSE2:chrome/updater/event_history.cc:265] Emitted a UPDATER_PROCESS END event to the history log
[78336:410725:0619/004317.104124:VERBOSE1:chrome/updater/updater.cc:419] UpdaterMain (--wake) returned 0.
[78331:410721:0619/004317.327906:VERBOSE1:chrome/updater/app/app_wakeall.cc:68] `/Users/junjie/Library/Application Support/Google/GoogleUpdater/150.0.7863.0/GoogleUpdater.app/Contents/MacOS/GoogleUpdater --wake` exited 0
[78331:410700:0619/004317.328007:VERBOSE1:chrome/updater/app/app.cc:52] Shutdown: 0
[78331:410700:0619/004317.328424:VERBOSE2:chrome/updater/event_history.cc:265] Emitted a UPDATER_PROCESS END event to the history log
[78331:410700:0619/004317.328455:VERBOSE1:chrome/updater/updater.cc:419] UpdaterMain (--wake-all) returned 0.
[78338:410730:0619/004327.110732:VERBOSE2:chrome/updater/event_history.cc:265] Emitted a UPDATER_PROCESS END event to the history log
[78338:410730:0619/004327.110753:VERBOSE1:chrome/updater/updater.cc:419] UpdaterMain (--crash-handler) returned 0.
[78335:410713:0619/004327.111586:VERBOSE2:chrome/updater/event_history.cc:265] Emitted a UPDATER_PROCESS END event to the history log
[78335:410713:0619/004327.111615:VERBOSE1:chrome/updater/updater.cc:419] UpdaterMain (--crash-handler) returned 0.
[codex-safe-run] exit 0 elapsed=46.5s
[codex-safe-run] start 2026-06-19 00:46:06 timeout=180.0s cmd=env INFO_INTRO_SOURCE_FPS=4 INFO_INTRO_OUTPUT_FPS=30 node /Users/junjie/info/artifacts/info-intro-part1/render.mjs
rendered 0s / 84s
rendered 1s / 84s
rendered 2s / 84s
Trying to load the allocator multiple times. This is *not* supported.
rendered 3s / 84s
rendered 4s / 84s
rendered 5s / 84s
rendered 6s / 84s
[1256:466023:0619/004610.495294:ERROR:google_apis/gcm/engine/registration_request.cc:291] Registration response error message: PHONE_REGISTRATION_ERROR
[1256:466023:0619/004610.496692:ERROR:google_apis/gcm/engine/registration_request.cc:291] Registration response error message: PHONE_REGISTRATION_ERROR
[1256:466023:0619/004610.496757:ERROR:google_apis/gcm/engine/registration_request.cc:291] Registration response error message: PHONE_REGISTRATION_ERROR
[1256:466023:0619/004610.669988:ERROR:google_apis/gcm/engine/connection_factory_impl.cc:435] Failed to connect to MCS endpoint with error -111
rendered 7s / 84s
rendered 8s / 84s
rendered 9s / 84s
rendered 10s / 84s
rendered 11s / 84s
rendered 12s / 84s
rendered 13s / 84s
rendered 14s / 84s
rendered 15s / 84s
rendered 16s / 84s
rendered 17s / 84s
rendered 18s / 84s
rendered 19s / 84s
rendered 20s / 84s
rendered 21s / 84s
rendered 22s / 84s
rendered 23s / 84s
rendered 24s / 84s
rendered 25s / 84s
rendered 26s / 84s
rendered 27s / 84s
rendered 28s / 84s
rendered 29s / 84s
rendered 30s / 84s
rendered 31s / 84s
rendered 32s / 84s
rendered 33s / 84s
rendered 34s / 84s
rendered 35s / 84s
rendered 36s / 84s
rendered 37s / 84s
rendered 38s / 84s
rendered 39s / 84s
rendered 40s / 84s
rendered 41s / 84s
rendered 42s / 84s
Created TensorFlow Lite XNNPACK delegate for CPU.
rendered 43s / 84s
rendered 44s / 84s
rendered 45s / 84s
rendered 46s / 84s
rendered 47s / 84s
rendered 48s / 84s
rendered 49s / 84s
rendered 50s / 84s
rendered 51s / 84s
rendered 52s / 84s
rendered 53s / 84s
rendered 54s / 84s
rendered 55s / 84s
[3826:472085:0619/004625.697583:VERBOSE1:chrome/updater/updater.cc:374] Version: 150.0.7863.0, opt, ARM_64, command line: /Users/junjie/Library/Application Support/Google/GoogleUpdater/150.0.7863.0/GoogleUpdater.app/Contents/MacOS/GoogleUpdater --wake-all --enable-logging --vmodule=*/components/update_client/*=2,*/chrome/enterprise_companion/*=2,*/chrome/updater/*=2
[3826:472085:0619/004625.697613:VERBOSE1:chrome/updater/updater.cc:377] OS version: 26.5.0, arch: arm64, System uptime (seconds): 1613, parent pid: 1256
[3826:472085:0619/004625.699380:VERBOSE1:chrome/updater/updater.cc:382] Available disk space in install directory (/Users/junjie/Library/Application Support/Google/GoogleUpdater): 62326927360B (58.046GiB) / 494353338368B (460.402GiB)
[3826:472085:0619/004625.699391:VERBOSE1:chrome/updater/updater.cc:386] Available disk space in temporary directory (/var/folders/nf/p_gz13xx08n82_nn23sptk9r0000gn/T/): 62326927360B (58.046GiB) / 494353338368B (460.402GiB)
[3826:472085:0619/004625.699443:VERBOSE2:chrome/updater/event_history.cc:265] Emitted a UPDATER_PROCESS START event to the history log
[3830:472094:0619/004625.707253:VERBOSE1:chrome/updater/updater.cc:374] Version: 150.0.7863.0, opt, ARM_64, command line: /Users/junjie/Library/Application Support/Google/GoogleUpdater/150.0.7863.0/GoogleUpdater.app/Contents/MacOS/GoogleUpdater --crash-handler --database=/Users/junjie/Library/Application Support/Google/GoogleUpdater/150.0.7863.0/Crashpad --url=https://clients2.google.com/cr/report --annotation=prod=Update4 --annotation=ver=150.0.7863.0 --handshake-fd=6 --enable-logging --vmodule=*/components/update_client/*=2,*/chrome/enterprise_companion/*=2,*/chrome/updater/*=2
[3830:472094:0619/004625.707289:VERBOSE1:chrome/updater/updater.cc:377] OS version: 26.5.0, arch: arm64, System uptime (seconds): 1613, parent pid: 1
[3830:472094:0619/004625.709098:VERBOSE1:chrome/updater/updater.cc:382] Available disk space in install directory (/Users/junjie/Library/Application Support/Google/GoogleUpdater): 62326923264B (58.046GiB) / 494353338368B (460.402GiB)
[3830:472094:0619/004625.709109:VERBOSE1:chrome/updater/updater.cc:386] Available disk space in temporary directory (/var/folders/nf/p_gz13xx08n82_nn23sptk9r0000gn/T/): 62326923264B (58.046GiB) / 494353338368B (460.402GiB)
[3830:472094:0619/004625.709171:VERBOSE2:chrome/updater/event_history.cc:265] Emitted a UPDATER_PROCESS START event to the history log
[3826:472085:0619/004625.709606:VERBOSE1:chrome/updater/crash_reporter.cc:124] Crash handler launched and ready.
[3826:472085:0619/004625.710149:VERBOSE1:chrome/updater/crash_client.cc:108] Found 0 completed crash reports
[3826:472085:0619/004625.710205:VERBOSE1:chrome/updater/crash_client.cc:132] Found 0 pending crash reports
[3826:472085:0619/004625.710266:ERROR:third_party/crashpad/crashpad/util/file/file_io_posix.cc:145] open /Users/junjie/Library/Application Support/Google/Chrome Dev/Crashpad/settings.dat: No such file or directory (2)
[3826:472085:0619/004625.710275:ERROR:third_party/crashpad/crashpad/util/file/file_io_posix.cc:145] open /Users/junjie/Library/Application Support/Google/RLZ/Crashpad/settings.dat: No such file or directory (2)
[3826:472085:0619/004625.710457:VERBOSE1:chrome/updater/updater.cc:105] Crash reporting initialized.
[3826:472107:0619/004625.710809:VERBOSE1:chrome/updater/app/app_wakeall.cc:58] Launching `/Users/junjie/Library/Application Support/Google/GoogleUpdater/150.0.7863.0/GoogleUpdater.app/Contents/MacOS/GoogleUpdater --wake`
[3831:472111:0619/004625.717549:VERBOSE1:chrome/updater/updater.cc:374] Version: 150.0.7863.0, opt, ARM_64, command line: /Users/junjie/Library/Application Support/Google/GoogleUpdater/150.0.7863.0/GoogleUpdater.app/Contents/MacOS/GoogleUpdater --wake --enable-logging --vmodule=*/components/update_client/*=2,*/chrome/enterprise_companion/*=2,*/chrome/updater/*=2
[3831:472111:0619/004625.717583:VERBOSE1:chrome/updater/updater.cc:377] OS version: 26.5.0, arch: arm64, System uptime (seconds): 1613, parent pid: 3826
[3831:472111:0619/004625.719225:VERBOSE1:chrome/updater/updater.cc:382] Available disk space in install directory (/Users/junjie/Library/Application Support/Google/GoogleUpdater): 62326849536B (58.046GiB) / 494353338368B (460.402GiB)
[3831:472111:0619/004625.719236:VERBOSE1:chrome/updater/updater.cc:386] Available disk space in temporary directory (/var/folders/nf/p_gz13xx08n82_nn23sptk9r0000gn/T/): 62326849536B (58.046GiB) / 494353338368B (460.402GiB)
[3831:472111:0619/004625.719296:VERBOSE2:chrome/updater/event_history.cc:265] Emitted a UPDATER_PROCESS START event to the history log
[3833:472115:0619/004625.726528:VERBOSE1:chrome/updater/updater.cc:374] Version: 150.0.7863.0, opt, ARM_64, command line: /Users/junjie/Library/Application Support/Google/GoogleUpdater/150.0.7863.0/GoogleUpdater.app/Contents/MacOS/GoogleUpdater --crash-handler --database=/Users/junjie/Library/Application Support/Google/GoogleUpdater/150.0.7863.0/Crashpad --url=https://clients2.google.com/cr/report --annotation=prod=Update4 --annotation=ver=150.0.7863.0 --handshake-fd=6 --enable-logging --vmodule=*/components/update_client/*=2,*/chrome/enterprise_companion/*=2,*/chrome/updater/*=2
[3833:472115:0619/004625.726560:VERBOSE1:chrome/updater/updater.cc:377] OS version: 26.5.0, arch: arm64, System uptime (seconds): 1613, parent pid: 1
[3833:472115:0619/004625.728239:VERBOSE1:chrome/updater/updater.cc:382] Available disk space in install directory (/Users/junjie/Library/Application Support/Google/GoogleUpdater): 62326845440B (58.046GiB) / 494353338368B (460.402GiB)
[3833:472115:0619/004625.728250:VERBOSE1:chrome/updater/updater.cc:386] Available disk space in temporary directory (/var/folders/nf/p_gz13xx08n82_nn23sptk9r0000gn/T/): 62326845440B (58.046GiB) / 494353338368B (460.402GiB)
[3833:472115:0619/004625.728302:VERBOSE2:chrome/updater/event_history.cc:265] Emitted a UPDATER_PROCESS START event to the history log
[3831:472111:0619/004625.728726:VERBOSE1:chrome/updater/crash_reporter.cc:124] Crash handler launched and ready.
[3831:472111:0619/004625.729248:VERBOSE1:chrome/updater/crash_client.cc:108] Found 0 completed crash reports
[3831:472111:0619/004625.729306:VERBOSE1:chrome/updater/crash_client.cc:132] Found 0 pending crash reports
[3831:472111:0619/004625.729374:ERROR:third_party/crashpad/crashpad/util/file/file_io_posix.cc:145] open /Users/junjie/Library/Application Support/Google/Chrome Dev/Crashpad/settings.dat: No such file or directory (2)
[3831:472111:0619/004625.729385:ERROR:third_party/crashpad/crashpad/util/file/file_io_posix.cc:145] open /Users/junjie/Library/Application Support/Google/RLZ/Crashpad/settings.dat: No such file or directory (2)
[3831:472111:0619/004625.729590:VERBOSE1:chrome/updater/updater.cc:105] Crash reporting initialized.
[3831:472111:0619/004625.729735:VERBOSE1:chrome/updater/ipc/update_service_internal_proxy_mojo.cc:61] Run
rendered 56s / 84s
rendered 57s / 84s
rendered 58s / 84s
rendered 59s / 84s
rendered 60s / 84s
rendered 61s / 84s
rendered 62s / 84s
rendered 63s / 84s
rendered 64s / 84s
rendered 65s / 84s
rendered 66s / 84s
rendered 67s / 84s
rendered 68s / 84s
rendered 69s / 84s
rendered 70s / 84s
rendered 71s / 84s
rendered 72s / 84s
rendered 73s / 84s
rendered 74s / 84s
rendered 75s / 84s
rendered 76s / 84s
rendered 77s / 84s
rendered 78s / 84s
rendered 79s / 84s
rendered 80s / 84s
rendered 81s / 84s
rendered 82s / 84s
[1256:466023:0619/004634.520145:ERROR:google_apis/gcm/engine/registration_request.cc:291] Registration response error message: DEPRECATED_ENDPOINT
rendered 83s / 84s
ffmpeg version 8.0.1 Copyright (c) 2000-2025 the FFmpeg developers
  built with Apple clang version 17.0.0 (clang-1700.6.3.2)
  configuration: --prefix=/opt/homebrew/Cellar/ffmpeg/8.0.1_4 --enable-shared --enable-pthreads --enable-version3 --cc=clang --host-cflags= --host-ldflags= --enable-ffplay --enable-gpl --enable-libsvtav1 --enable-libopus --enable-libx264 --enable-libmp3lame --enable-libdav1d --enable-libvpx --enable-libx265 --enable-openssl --enable-videotoolbox --enable-audiotoolbox --enable-neon
  libavutil      60.  8.100 / 60.  8.100
  libavcodec     62. 11.100 / 62. 11.100
  libavformat    62.  3.100 / 62.  3.100
  libavdevice    62.  1.100 / 62.  1.100
  libavfilter    11.  4.100 / 11.  4.100
  libswscale      9.  1.100 /  9.  1.100
  libswresample   6.  1.100 /  6.  1.100
Input #0, image2, from '/Users/junjie/info/artifacts/info-intro-part1/frames/frame-%05d.png':
  Duration: 00:01:24.00, start: 0.000000, bitrate: N/A
  Stream #0:0: Video: png, rgb24(pc, gbr/unknown/unknown), 1280x720, 4 fps, 4 tbr, 4 tbn
Stream mapping:
  Stream #0:0 -> #0:0 (png (native) -> h264 (libx264))
Press [q] to stop, [?] for help
[libx264 @ 0x758c34a80] using cpu capabilities: ARMv8 NEON DotProd I8MM
[libx264 @ 0x758c34a80] profile High, level 3.1, 4:2:0, 8-bit
[libx264 @ 0x758c34a80] 264 - core 165 r3222 b35605a - H.264/MPEG-4 AVC codec - Copyleft 2003-2025 - http://www.videolan.org/x264.html - options: cabac=1 ref=3 deblock=1:0:0 analyse=0x3:0x113 me=hex subme=7 psy=1 psy_rd=1.00:0.00 mixed_ref=1 me_range=16 chroma_me=1 trellis=1 8x8dct=1 cqm=0 deadzone=21,11 fast_pskip=1 chroma_qp_offset=-2 threads=15 lookahead_threads=2 sliced_threads=0 nr=0 decimate=1 interlaced=0 bluray_compat=0 constrained_intra=0 bframes=3 b_pyramid=2 b_adapt=1 b_bias=0 direct=1 weightb=1 open_gop=0 weightp=2 keyint=250 keyint_min=25 scenecut=40 intra_refresh=0 rc_lookahead=40 rc=crf mbtree=1 crf=23.0 qcomp=0.60 qpmin=0 qpmax=69 qpstep=4 ip_ratio=1.40 aq=1:1.00
Output #0, mp4, to '/Users/junjie/info/artifacts/info-intro-part1/info-intro-part1.mp4':
  Metadata:
    encoder         : Lavf62.3.100
  Stream #0:0: Video: h264 (avc1 / 0x31637661), yuv420p(tv, progressive), 1280x720, q=2-31, 30 fps, 15360 tbn
    Metadata:
      encoder         : Lavc62.11.100 libx264
    Side data:
      cpb: bitrate max/min/avg: 0/0/0 buffer size: 0 vbv_delay: N/A
frame=  317 fps=0.0 q=29.0 size=     256KiB time=00:00:10.50 bitrate= 199.8kbits/s dup=338 drop=0 speed=20.8x elapsed=0:00:00.50    
frame=  682 fps=676 q=29.0 size=     512KiB time=00:00:22.66 bitrate= 185.1kbits/s dup=657 drop=0 speed=22.5x elapsed=0:00:01.00    
frame= 1063 fps=702 q=29.0 size=    1024KiB time=00:00:35.36 bitrate= 237.2kbits/s dup=982 drop=0 speed=23.4x elapsed=0:00:01.51    
[vf#0:0 @ 0x759014540] More than 1000 frames duplicated
frame= 1434 fps=711 q=29.0 size=    1280KiB time=00:00:47.73 bitrate= 219.7kbits/s dup=1307 drop=0 speed=23.7x elapsed=0:00:02.01    
frame= 1825 fps=723 q=29.0 size=    1536KiB time=00:01:00.76 bitrate= 207.1kbits/s dup=1645 drop=0 speed=24.1x elapsed=0:00:02.52    
frame= 2111 fps=698 q=29.0 size=    1792KiB time=00:01:10.30 bitrate= 208.8kbits/s dup=1892 drop=0 speed=23.2x elapsed=0:00:03.02    
frame= 2437 fps=691 q=29.0 size=    2048KiB time=00:01:21.16 bitrate= 206.7kbits/s dup=2171 drop=0 speed=  23x elapsed=0:00:03.52    
[mp4 @ 0x758c30280] Starting second pass: moving the moov atom to the beginning of the file
[out#0/mp4 @ 0x759010240] video:2214KiB audio:0KiB subtitle:0KiB other streams:0KiB global headers:0KiB muxing overhead: 1.370824%
frame= 2520 fps=696 q=-1.0 Lsize=    2245KiB time=00:01:23.93 bitrate= 219.1kbits/s dup=2184 drop=0 speed=23.2x elapsed=0:00:03.62    
[libx264 @ 0x758c34a80] frame I:11    Avg QP:13.96  size: 57047
[libx264 @ 0x758c34a80] frame P:635   Avg QP:16.84  size:  2272
[libx264 @ 0x758c34a80] frame B:1874  Avg QP:23.32  size:   105
[libx264 @ 0x758c34a80] consecutive B-frames:  0.8%  0.0%  0.1% 99.0%
[libx264 @ 0x758c34a80] mb I  I16..4: 40.6% 17.7% 41.7%
[libx264 @ 0x758c34a80] mb P  I16..4:  0.6%  0.3%  0.4%  P16..4:  2.9%  1.0%  0.7%  0.0%  0.0%    skip:94.2%
[libx264 @ 0x758c34a80] mb B  I16..4:  0.0%  0.0%  0.0%  B16..8:  2.6%  0.0%  0.0%  direct: 0.0%  skip:97.3%  L0:56.1% L1:43.4% BI: 0.5%
[libx264 @ 0x758c34a80] 8x8 transform intra:20.7% inter:39.3%
[libx264 @ 0x758c34a80] coded y,uvDC,uvAC intra: 34.2% 33.8% 23.2% inter: 0.4% 0.4% 0.1%
[libx264 @ 0x758c34a80] i16 v,h,dc,p: 50% 48%  1%  0%
[libx264 @ 0x758c34a80] i8 v,h,dc,ddl,ddr,vr,hd,vl,hu: 24% 16% 54%  2%  1%  1%  1%  1%  1%
[libx264 @ 0x758c34a80] i4 v,h,dc,ddl,ddr,vr,hd,vl,hu: 46% 31% 13%  2%  2%  2%  2%  2%  2%
[libx264 @ 0x758c34a80] i8c dc,h,v,p: 51% 27% 21%  1%
[libx264 @ 0x758c34a80] Weighted P-Frames: Y:1.1% UV:0.8%
[libx264 @ 0x758c34a80] ref P L0: 72.0% 14.9% 10.1%  3.0%  0.0%
[libx264 @ 0x758c34a80] ref B L0: 62.4% 36.6%  1.0%
[libx264 @ 0x758c34a80] ref B L1: 96.3%  3.7%
[libx264 @ 0x758c34a80] kb/s:215.88
Wrote /Users/junjie/info/artifacts/info-intro-part1/info-intro-part1.mp4
[3831:472111:0619/004642.784428:VERBOSE1:chrome/updater/app/app.cc:52] Shutdown: 0
[3831:472111:0619/004642.784799:VERBOSE2:chrome/updater/event_history.cc:265] Emitted a UPDATER_PROCESS END event to the history log
[3831:472111:0619/004642.784818:VERBOSE1:chrome/updater/updater.cc:419] UpdaterMain (--wake) returned 0.
[3826:472107:0619/004643.052029:VERBOSE1:chrome/updater/app/app_wakeall.cc:68] `/Users/junjie/Library/Application Support/Google/GoogleUpdater/150.0.7863.0/GoogleUpdater.app/Contents/MacOS/GoogleUpdater --wake` exited 0
[3826:472085:0619/004643.052138:VERBOSE1:chrome/updater/app/app.cc:52] Shutdown: 0
[3826:472085:0619/004643.052520:VERBOSE2:chrome/updater/event_history.cc:265] Emitted a UPDATER_PROCESS END event to the history log
[3826:472085:0619/004643.052541:VERBOSE1:chrome/updater/updater.cc:419] UpdaterMain (--wake-all) returned 0.
[3833:472115:0619/004652.795183:VERBOSE2:chrome/updater/event_history.cc:265] Emitted a UPDATER_PROCESS END event to the history log
[3833:472115:0619/004652.795229:VERBOSE1:chrome/updater/updater.cc:419] UpdaterMain (--crash-handler) returned 0.
[3830:472094:0619/004652.797187:VERBOSE2:chrome/updater/event_history.cc:265] Emitted a UPDATER_PROCESS END event to the history log
[3830:472094:0619/004652.797234:VERBOSE1:chrome/updater/updater.cc:419] UpdaterMain (--crash-handler) returned 0.
[codex-safe-run] exit 0 elapsed=46.5s
